<svg width="276" height="301" viewBox="0 0 276 301" fill="none" xmlns="http://www.w3.org/2000/svg">
<path d="M0 28C0 12.536 12.536 0 28 0H247.319C262.783 0 275.319 12.536 275.319 28V273C275.319 288.464 262.783 301 247.319 301H28C12.536 301 0 288.464 0 273V28Z" fill="white"/>
<path fill-rule="evenodd" clip-rule="evenodd" d="M133.061 32.3621C131.729 32.6623 129.673 33.3968 128.493 33.9944C125.375 35.5735 42.9423 83.6546 40.2866 85.4434C36.4663 88.0163 34.0288 91.4095 32.6404 96.0872C32.0846 97.9582 32 101.19 32 120.515C32 140.879 32.0624 143.01 32.727 145.406C34.0101 150.03 36.4611 153.282 40.7335 156.027C41.9599 156.815 59.0301 166.125 78.6674 176.717C102.056 189.331 114.867 196.459 115.807 197.38C118.033 199.56 118.998 201.991 118.998 205.421C118.998 207.746 118.794 208.734 117.974 210.379C116.21 213.916 112.905 216.026 108.647 216.331C106.302 216.499 105.75 216.381 103.086 215.145C101.459 214.39 84.8955 205.524 66.2775 195.443C47.6596 185.362 32.3059 177.114 32.1581 177.114C32.0103 177.114 32.0131 183.055 32.1645 190.316C32.4624 204.637 32.6428 205.969 34.8419 210.114C37.3986 214.931 36.4456 214.324 84.5816 241.789C109.082 255.768 130.022 267.612 131.114 268.107C132.831 268.887 133.746 269.008 137.867 269C141.417 268.993 143.091 268.815 144.422 268.302C145.405 267.924 166.22 255.962 190.677 241.721C239.143 213.498 238.715 213.777 241.074 208.878C243.559 203.716 243.473 205.738 243.162 159.643C242.847 113.194 243.034 116.075 240.209 114.156C237.583 112.372 236.528 112.65 225.986 117.902C220.781 120.495 216.165 123.015 215.728 123.502C214.947 124.374 214.932 125.022 214.832 163.358C214.738 199.367 214.68 202.364 214.061 202.823C213.693 203.096 213.092 203.319 212.725 203.319C212.359 203.319 208.815 199.843 204.85 195.593C197.091 187.28 196.25 186.69 193.896 187.923C193.218 188.278 189.33 193.599 183.206 202.551C174.635 215.081 173.455 216.635 172.428 216.754C170.16 217.016 170.243 218.296 170.243 183.172C170.243 148.096 170.313 149.228 168.069 148.206C167.497 147.945 166.624 147.732 166.131 147.732C165.637 147.732 162.115 149.253 158.304 151.114C154.492 152.974 149.974 154.941 148.264 155.485C139.22 158.36 130.783 158.319 121.973 155.357C117.758 153.94 61.8943 127.511 59.6752 125.885C56.5393 123.587 55.035 120.568 55.0493 116.603C55.0735 109.842 61.3139 104.724 67.9734 106.003C69.1949 106.237 81.2594 111.747 98.7603 120.063C114.588 127.584 128.522 134.072 129.724 134.481C132.724 135.502 137.837 135.428 141.045 134.317C142.356 133.863 160.232 125.238 180.77 115.151C201.308 105.065 221.508 95.1553 225.66 93.1308C231.882 90.0957 233.338 89.2253 233.949 88.1743C234.909 86.5257 234.625 84.0378 233.336 82.7918C231.63 81.1424 146.768 34.1421 143.379 32.9696C140.481 31.9666 135.991 31.7026 133.061 32.3621Z" fill="#4263F7"/>
</svg>
